<?xml version="1.0" standalone="no"?><!DOCTYPE svg PUBLIC "-//W3C//DTD SVG 1.1//EN" "http://www.w3.org/Graphics/SVG/1.1/DTD/svg11.dtd"><svg width="100%" height="100%" viewBox="0 0 200 200" version="1.1" xmlns="http://www.w3.org/2000/svg" xmlns:xlink="http://www.w3.org/1999/xlink" xml:space="preserve" style="fill-rule:evenodd;clip-rule:evenodd;stroke-linejoin:round;stroke-miterlimit:1.41421;"><g id="Layer1"><g><path d="M100.191,200.191c55.228,0 100,-44.772 100,-100c0,-55.228 -44.772,-100 -100,-100c-55.228,0 -100,44.772 -100,100c0,55.228 44.772,100 100,100" style="fill:#fff;fill-rule:nonzero;"/><path d="M120.887,83.99l-6.216,-17.477c-0.199,-0.559 -0.315,-1.125 -0.372,-1.688l-1.733,4.869l6.703,18.844l1.618,-4.548Z" style="fill:#00aeef;fill-rule:nonzero;"/><path d="M93.514,120.662l6.216,-17.476l-1.617,-4.549l-6.703,18.844l1.732,4.871c0.057,-0.565 0.174,-1.131 0.372,-1.69" style="fill:#00aeef;fill-rule:nonzero;"/><path d="M135.828,120.662l6.216,-17.476l-1.618,-4.549l-6.703,18.844l1.733,4.871c0.057,-0.565 0.173,-1.131 0.372,-1.69" style="fill:#00aeef;fill-rule:nonzero;"/><path d="M96.837,132.762l0.017,-0.049c1.08,0.384 2.202,0.58 3.339,0.588c1.135,-0.008 2.257,-0.204 3.336,-0.588c2.573,-0.915 4.636,-2.779 5.809,-5.251c1.175,-2.472 1.319,-5.25 0.405,-7.821l-0.306,-0.86l-2.383,6.697c-1.045,2.94 -3.822,4.779 -6.777,4.779c-0.028,0 -0.056,-0.004 -0.084,-0.004c-0.03,0 -0.058,0.004 -0.086,0.004c-2.955,0 -5.732,-1.838 -6.778,-4.779l-2.382,-6.697l-0.306,0.86c-1.891,5.316 0.896,11.181 6.213,13.072l-0.017,0.049Z" style="fill:#00aeef;fill-rule:nonzero;"/><path d="M107.242,122.351l1.733,-4.87l-6.703,-18.843l-1.618,4.549l6.216,17.475c0.199,0.559 0.315,1.125 0.372,1.689" style="fill:#00aeef;fill-rule:nonzero;"/><path d="M153.516,122.915l19.698,-55.38c1.89,-5.317 -0.897,-11.181 -6.213,-13.072c-2.572,-0.915 -5.349,-0.772 -7.821,0.403c-2.472,1.175 -4.337,3.238 -5.251,5.809l-10.961,30.815l1.618,4.548l12.215,-34.341c1.016,-2.857 3.74,-4.778 6.776,-4.778c0.818,0 1.625,0.14 2.402,0.416c3.734,1.328 5.689,5.446 4.362,9.178l-18.128,50.968l0.664,1.867c0.419,1.178 0.624,2.381 0.639,3.567" style="fill:#00aeef;fill-rule:nonzero;"/><path d="M68.026,64.254l-19.697,55.38c-1.891,5.317 0.895,11.181 6.212,13.072c2.572,0.916 5.348,0.772 7.82,-0.403c2.472,-1.175 4.337,-3.238 5.252,-5.81l10.96,-30.814l-1.618,-4.548l-12.214,34.341c-1.017,2.857 -3.74,4.778 -6.777,4.778c-0.818,0 -1.625,-0.14 -2.401,-0.416c-3.734,-1.328 -5.69,-5.446 -4.362,-9.178l18.128,-50.968l-0.665,-1.869c-0.419,-1.176 -0.622,-2.379 -0.638,-3.565" style="fill:#00aeef;fill-rule:nonzero;"/><path d="M111.202,122.915l19.698,-55.38c1.89,-5.317 -0.897,-11.181 -6.213,-13.072c-2.571,-0.915 -5.349,-0.772 -7.821,0.403c-2.472,1.175 -4.336,3.238 -5.251,5.809l-10.96,30.815l1.617,4.548l12.215,-34.341c1.016,-2.857 3.74,-4.778 6.776,-4.778c0.818,0 1.627,0.14 2.402,0.416c3.734,1.328 5.69,5.446 4.362,9.178l-18.128,50.968l0.664,1.867c0.42,1.178 0.624,2.381 0.639,3.567" style="fill:#00aeef;fill-rule:nonzero;"/><path d="M89.18,122.915l-19.697,-55.38c-1.891,-5.317 0.895,-11.181 6.212,-13.072c2.572,-0.915 5.35,-0.772 7.82,0.403c2.472,1.175 4.337,3.238 5.252,5.809l10.96,30.815l-1.618,4.548l-12.214,-34.341c-1.017,-2.857 -3.74,-4.778 -6.777,-4.778c-0.817,0 -1.625,0.14 -2.401,0.416c-3.733,1.328 -5.69,5.446 -4.362,9.178l18.128,50.968l-0.665,1.867c-0.419,1.178 -0.622,2.381 -0.638,3.567" style="fill:#00a76f;fill-rule:nonzero;"/><path d="M132.351,64.254l19.699,55.38c1.889,5.317 -0.897,11.181 -6.214,13.072c-2.572,0.916 -5.348,0.772 -7.82,-0.403c-2.472,-1.175 -4.337,-3.238 -5.252,-5.81l-10.96,-30.814l1.618,-4.548l12.214,34.341c1.017,2.857 3.74,4.778 6.777,4.778c0.818,0 1.626,-0.14 2.401,-0.416c3.734,-1.328 5.69,-5.446 4.362,-9.178l-18.128,-50.968l0.665,-1.869c0.419,-1.176 0.622,-2.379 0.638,-3.565" style="fill:#00aeef;fill-rule:nonzero;"/><path d="M98.574,97.338l1.618,4.549l1.617,-4.549l-1.617,-4.548l-1.618,4.548Z" style="fill:#00aeef;fill-rule:nonzero;"/><path d="M41.204,54.866c-1.397,-0.664 -2.892,-0.998 -4.392,-0.998c-1.155,0 -2.31,0.197 -3.428,0.595c-2.571,0.915 -4.634,2.78 -5.809,5.252c-1.175,2.472 -1.319,5.248 -0.403,7.82l19.697,55.38c0.015,-1.186 0.219,-2.388 0.638,-3.566l0.665,-1.868l-18.128,-50.968c-1.328,-3.734 0.628,-7.85 4.362,-9.178c0.776,-0.276 1.584,-0.416 2.401,-0.416c3.037,0 5.761,1.921 6.777,4.778l12.215,34.341l1.617,-4.548l-10.96,-30.815c-0.915,-2.571 -2.779,-4.634 -5.252,-5.809" style="fill:#00aeef;fill-rule:nonzero;"/><path d="M62.815,158.118l4.309,-11.143l1.593,0l-4.983,12.709l-1.81,0l-4.187,-11.101l-4.16,11.101l-1.796,0l-4.985,-12.709l1.635,0l4.295,11.13l4.173,-11.13l1.729,0l4.187,11.143Z" style="fill:#00a76f;fill-rule:nonzero;"/><path d="M83.043,153.256c0,0.229 -0.013,0.445 -0.028,0.635l-10.656,0c0.23,2.957 2.31,4.659 4.916,4.659c1.769,0 3.175,-0.702 4.296,-1.809l0.823,1.053c-1.607,1.634 -3.376,2.094 -5.213,2.094c-3.714,0 -6.388,-2.675 -6.388,-6.551c0,-3.836 2.715,-6.564 6.294,-6.564c3.39,0 5.915,2.689 5.956,6.483M72.387,152.568l9.09,0c-0.231,-2.634 -2.027,-4.43 -4.418,-4.43c-2.579,0 -4.375,1.849 -4.672,4.43" style="fill:#00a76f;fill-rule:nonzero;"/><path d="M97.135,148.745l-1,1.041c-0.985,-0.987 -2.228,-1.568 -3.728,-1.568c-2.781,0 -4.901,2.162 -4.901,5.119c0,2.958 2.12,5.105 4.901,5.105c1.5,0 2.811,-0.634 3.769,-1.58l0.959,1.053c-1.148,1.271 -2.809,1.972 -4.687,1.972c-3.822,0 -6.51,-2.808 -6.51,-6.55c0,-3.741 2.688,-6.564 6.51,-6.564c1.878,0 3.553,0.703 4.687,1.972" style="fill:#00aeef;fill-rule:nonzero;"/><path d="M112.767,153.337c0,3.741 -2.85,6.55 -6.618,6.55c-3.768,0 -6.591,-2.809 -6.591,-6.55c0,-3.741 2.823,-6.565 6.591,-6.565c3.768,0 6.618,2.824 6.618,6.565M101.124,153.337c0,2.957 2.175,5.106 5.025,5.106c2.863,0 5.038,-2.149 5.038,-5.106c0,-2.957 -2.175,-5.119 -5.038,-5.119c-2.85,0 -5.025,2.162 -5.025,5.119" style="fill:#00aeef;fill-rule:nonzero;"/><path d="M127.927,154.431c0,3.606 -2.58,5.456 -5.7,5.456c-3.133,0 -5.699,-1.85 -5.699,-5.456l0,-7.456l1.54,0l0,7.321c0,2.728 1.715,4.146 4.159,4.146c2.431,0 4.16,-1.418 4.16,-4.146l0,-7.321l1.54,0l0,7.456Z" style="fill:#00aeef;fill-rule:nonzero;"/><path d="M144.113,151.892l0,7.793l-1.54,0l0,-7.321c0,-2.566 -1.485,-4.132 -4.079,-4.132c-2.39,0 -4.255,1.714 -4.255,4.213l0,7.24l-1.538,0l0,-12.709l1.525,0l0,2.228c1,-1.702 2.782,-2.431 4.538,-2.431c3.189,0 5.349,1.972 5.349,5.119" style="fill:#00aeef;fill-rule:nonzero;"/><path d="M157.288,148.381l-5.862,0l0,6.927c0,2.149 1.135,3.134 2.824,3.134c1.092,0 2.092,-0.378 2.835,-0.972l0.729,1.149c-0.904,0.756 -2.16,1.269 -3.686,1.269c-2.647,0 -4.242,-1.472 -4.242,-4.552l0,-6.955l-2.917,0l0,-1.405l2.917,0l0,-4.147l1.54,0l0,4.147l5.862,0l0,1.405Z" style="fill:#00aeef;fill-rule:nonzero;"/></g></g></svg>